<?xml version="1.0" encoding="UTF-8" standalone="no"?>
<!-- Created with Inkscape (http://www.inkscape.org/) -->

<svg
   xmlns:svg="http://www.w3.org/2000/svg"
   xmlns="http://www.w3.org/2000/svg"
   xmlns:inkscape="http://www.inkscape.org/namespaces/inkscape"
   version="1.1"
   width="240"
   height="175"
   id="svg2">
  <defs
     id="defs4">
    <pattern
       patternUnits="userSpaceOnUse"
       width="4"
       height="1"
       patternTransform="matrix(0.21354753,0.21354753,-1.4000606,1.4000606,251,448.36218)"
       id="Strips1_3"
       inkscape:stockid="Stripes 1:3">
      <rect
         style="fill:black;stroke:none"
         x="0"
         y="-0.5"
         width="1"
         height="2"
         id="rect7403" />
    </pattern>
    <marker
       refX="0"
       refY="0"
       orient="auto"
       id="Arrow1Mstart"
       style="overflow:visible">
      <path
         d="M 0,0 5,-5 -12.5,0 5,5 0,0 z"
         transform="matrix(0.4,0,0,0.4,4,0)"
         id="path3686"
         style="fill-rule:evenodd;stroke:#000000;stroke-width:1pt;marker-start:none" />
    </marker>
    <marker
       refX="0"
       refY="0"
       orient="auto"
       id="Arrow1Mend"
       style="overflow:visible">
      <path
         d="M 0,0 5,-5 -12.5,0 5,5 0,0 z"
         transform="matrix(-0.4,0,0,-0.4,-4,0)"
         id="path3689"
         style="fill-rule:evenodd;stroke:#000000;stroke-width:1pt;marker-start:none" />
    </marker>
  </defs>
  <g
     transform="translate(-146.79799,-422.49469)"
     id="layer1">
    <g
       id="text2847"
       style="font-size:12px;font-style:normal;font-variant:normal;font-weight:normal;font-stretch:condensed;text-align:start;line-height:100%;writing-mode:lr-tb;text-anchor:start;fill:#000000;fill-opacity:1;stroke:#000000;stroke-width:0.1;stroke-linecap:round;stroke-linejoin:round;stroke-miterlimit:4;stroke-opacity:1;stroke-dasharray:none;font-family:Abadi MT Condensed Light;-inkscape-font-specification:'Abadi MT Condensed Light, Condensed'">
      <path
         d="m 152.79799,475.18835 2.16797,0 c 0.63671,10e-6 1.14648,0.15822 1.52929,0.47461 0.38672,0.31251 0.58008,0.78517 0.58008,1.41797 0,0.45313 -0.11328,0.83985 -0.33984,1.16016 -0.22657,0.32032 -0.56836,0.57618 -1.02539,0.76758 0.64453,0.0586 1.12695,0.25391 1.44726,0.58593 0.32422,0.32813 0.48633,0.79298 0.48633,1.39454 0,0.46094 -0.0957,0.85742 -0.28711,1.18945 -0.19141,0.32812 -0.47852,0.60742 -0.86133,0.83789 -0.37891,0.23047 -0.83789,0.3457 -1.37695,0.3457 l -2.32031,0 0,-8.17383 m 0.79101,0.69141 0,2.86524 0.89063,0 c 0.55468,0 0.98828,-0.13672 1.30078,-0.41016 0.3164,-0.27343 0.47461,-0.66601 0.47461,-1.17774 0,-0.42577 -0.12891,-0.74413 -0.38672,-0.95507 -0.25391,-0.21484 -0.63672,-0.32226 -1.14844,-0.32227 l -1.13086,0 m 0,3.55078 0,3.2461 1.31836,0 c 0.60938,0 1.07812,-0.15625 1.40625,-0.46875 0.33203,-0.3125 0.49805,-0.73438 0.49805,-1.26563 0,-0.53125 -0.17774,-0.91601 -0.5332,-1.1543 -0.35547,-0.23827 -0.9043,-0.35741 -1.64649,-0.35742 l -1.04297,0"
         id="path10057"
         style="stroke:#000000;stroke-width:0.1;stroke-linecap:round;stroke-linejoin:round;stroke-miterlimit:4;stroke-opacity:1;stroke-dasharray:none" />
      <path
         d="m 159.38393,478.60437 c 0.17578,-0.32031 0.37109,-0.55859 0.58593,-0.71484 0.21875,-0.16015 0.45703,-0.24023 0.71485,-0.24024 0.1914,10e-6 0.38476,0.043 0.58008,0.12891 l 0,0.6914 c -0.22657,-0.0859 -0.41798,-0.1289 -0.57422,-0.1289 -0.3711,0 -0.68165,0.17383 -0.93164,0.52148 -0.25001,0.34766 -0.37501,0.7461 -0.375,1.19532 l 0,3.30468 -0.72071,0 0,-5.58398 0.65625,0 0.0645,0.82617"
         id="path10059"
         style="stroke:#000000;stroke-width:0.1;stroke-linecap:round;stroke-linejoin:round;stroke-miterlimit:4;stroke-opacity:1;stroke-dasharray:none" />
      <path
         d="m 162.44838,478.14734 c 0.59765,-0.33203 1.09961,-0.49804 1.50586,-0.49805 0.58593,10e-6 1.02929,0.16993 1.33008,0.50977 0.30077,0.34375 0.45116,0.80469 0.45117,1.38281 l 0,2.94727 c -1e-5,0.21484 0.10156,0.32226 0.30469,0.32226 0.10546,0 0.21093,-0.0293 0.3164,-0.0879 l 0,0.63867 c -0.1875,0.0859 -0.37891,0.12891 -0.57422,0.12891 -0.50781,0 -0.76953,-0.29883 -0.78515,-0.89649 -0.19141,0.29688 -0.4043,0.52149 -0.63867,0.67383 -0.23438,0.14844 -0.48829,0.22266 -0.76172,0.22266 -0.44532,0 -0.81836,-0.16211 -1.11914,-0.48633 -0.30079,-0.32422 -0.45118,-0.7207 -0.45118,-1.18945 0,-0.49609 0.18555,-0.9082 0.55665,-1.23633 0.37499,-0.32812 1.17968,-0.55078 2.41406,-0.66797 l 0,-0.48047 c -1e-5,-0.3164 -0.10352,-0.57617 -0.31055,-0.77929 -0.20313,-0.20703 -0.45703,-0.31055 -0.76172,-0.31055 -0.43359,0 -0.92578,0.21485 -1.47656,0.64453 l 0,-0.83789 m 2.54883,2.33789 c -0.96485,0.11719 -1.57618,0.28321 -1.83399,0.49805 -0.2539,0.21094 -0.38086,0.48047 -0.38086,0.80859 0,0.29688 0.0937,0.54297 0.28125,0.73828 0.1875,0.19141 0.42383,0.28711 0.70899,0.28711 0.35546,0 0.64843,-0.14844 0.8789,-0.44531 0.23047,-0.29688 0.3457,-0.67773 0.34571,-1.14258 l 0,-0.74414"
         id="path10061"
         style="stroke:#000000;stroke-width:0.1;stroke-linecap:round;stroke-linejoin:round;stroke-miterlimit:4;stroke-opacity:1;stroke-dasharray:none" />
      <path
         d="m 167.18275,477.7782 0.66211,0 0.0703,0.79687 c 0.19531,-0.30859 0.41601,-0.53905 0.66211,-0.6914 0.24999,-0.15625 0.52538,-0.23437 0.82617,-0.23438 0.47656,10e-6 0.84765,0.16016 1.11328,0.48047 0.26562,0.32032 0.39843,0.74805 0.39844,1.2832 l 0,3.94922 -0.74414,0 0,-3.94922 c -1e-5,-0.32812 -0.0859,-0.58984 -0.25782,-0.78515 -0.17187,-0.19531 -0.39453,-0.29297 -0.66797,-0.29297 -0.37109,0 -0.68554,0.16407 -0.94335,0.49219 -0.25782,0.32422 -0.38672,0.69922 -0.38672,1.125 l 0,3.41015 -0.73243,0 0,-5.58398"
         id="path10063"
         style="stroke:#000000;stroke-width:0.1;stroke-linecap:round;stroke-linejoin:round;stroke-miterlimit:4;stroke-opacity:1;stroke-dasharray:none" />
      <path
         d="m 175.49721,483.11023 c -0.43751,0.25391 -0.86329,0.38086 -1.27735,0.38086 -0.68359,0 -1.23828,-0.27344 -1.66406,-0.82031 -0.42578,-0.55078 -0.63867,-1.23047 -0.63867,-2.03907 0,-0.83202 0.2207,-1.5371 0.66211,-2.11523 0.44531,-0.57812 1.01953,-0.86718 1.72266,-0.86719 0.39062,10e-6 0.78905,0.1172 1.19531,0.35156 l 0,0.81446 c -0.39454,-0.3164 -0.7754,-0.47461 -1.14258,-0.47461 -0.47657,0 -0.87696,0.21289 -1.20117,0.63867 -0.32422,0.42579 -0.48633,0.96094 -0.48633,1.60547 0,0.58594 0.14648,1.10156 0.43945,1.54687 0.29297,0.44532 0.6875,0.66797 1.1836,0.66797 0.36327,0 0.76562,-0.16015 1.20703,-0.48047 l 0,0.79102"
         id="path10065"
         style="stroke:#000000;stroke-width:0.1;stroke-linecap:round;stroke-linejoin:round;stroke-miterlimit:4;stroke-opacity:1;stroke-dasharray:none" />
      <path
         d="m 176.60463,475.18835 0.73828,0 0,3.35157 c 0.18359,-0.29687 0.39648,-0.51953 0.63867,-0.66797 0.24219,-0.14843 0.51563,-0.22265 0.82032,-0.22266 0.45702,10e-6 0.82226,0.16016 1.0957,0.48047 0.27734,0.32032 0.41601,0.72852 0.41601,1.22461 l 0,4.00781 -0.73242,0 0,-4.00781 c 0,-0.30859 -0.0898,-0.55468 -0.26953,-0.73828 -0.17578,-0.1875 -0.39649,-0.28125 -0.66211,-0.28125 -0.36719,0 -0.67774,0.15821 -0.93164,0.47461 -0.25,0.31641 -0.375,0.6836 -0.375,1.10156 l 0,3.45117 -0.73828,0 0,-8.17383"
         id="path10067"
         style="stroke:#000000;stroke-width:0.1;stroke-linecap:round;stroke-linejoin:round;stroke-miterlimit:4;stroke-opacity:1;stroke-dasharray:none" />
      <path
         d="m 184.339,475.18835 0.73829,0 0,3.35157 c 0.18359,-0.29687 0.39648,-0.51953 0.63867,-0.66797 0.24218,-0.14843 0.51562,-0.22265 0.82031,-0.22266 0.45703,10e-6 0.82226,0.16016 1.0957,0.48047 0.27734,0.32032 0.41601,0.72852 0.41602,1.22461 l 0,4.00781 -0.73242,0 0,-4.00781 c -1e-5,-0.30859 -0.0899,-0.55468 -0.26953,-0.73828 -0.17579,-0.1875 -0.39649,-0.28125 -0.66211,-0.28125 -0.36719,0 -0.67774,0.15821 -0.93164,0.47461 -0.25001,0.31641 -0.37501,0.6836 -0.375,1.10156 l 0,3.45117 -0.73829,0 0,-8.17383"
         id="path10069"
         style="stroke:#000000;stroke-width:0.1;stroke-linecap:round;stroke-linejoin:round;stroke-miterlimit:4;stroke-opacity:1;stroke-dasharray:none" />
      <path
         d="m 189.70033,475.30554 c 0.28906,10e-6 0.43359,0.22071 0.4336,0.66211 -1e-5,0.46485 -0.14844,0.69727 -0.44532,0.69727 -0.28515,0 -0.42773,-0.22461 -0.42773,-0.67383 0,-0.45702 0.14648,-0.68554 0.43945,-0.68555 m -0.375,2.47266 0.73242,0 0,5.58398 -0.73242,0 0,-5.58398"
         id="path10071"
         style="stroke:#000000;stroke-width:0.1;stroke-linecap:round;stroke-linejoin:round;stroke-miterlimit:4;stroke-opacity:1;stroke-dasharray:none" />
      <path
         d="m 191.07729,482.14343 c 0.54687,0.44532 1.06835,0.66797 1.56445,0.66797 0.38281,0 0.69921,-0.0957 0.94922,-0.28711 0.24999,-0.19531 0.37499,-0.4414 0.375,-0.73828 -1e-5,-0.21484 -0.084,-0.39453 -0.25196,-0.53906 -0.16406,-0.14453 -0.48437,-0.28711 -0.96093,-0.42774 -0.58594,-0.17577 -1.01368,-0.37695 -1.28321,-0.60351 -0.26953,-0.22656 -0.40429,-0.54101 -0.40429,-0.94336 0,-0.46093 0.18164,-0.8457 0.54492,-1.1543 0.36328,-0.31249 0.8125,-0.46874 1.34766,-0.46875 0.42968,10e-6 0.91796,0.15235 1.46484,0.45703 l 0,0.83203 c -0.46485,-0.40624 -0.94141,-0.60937 -1.42969,-0.60937 -0.33594,0 -0.61328,0.0899 -0.83203,0.26953 -0.21484,0.17969 -0.32227,0.39649 -0.32227,0.65039 0,0.21485 0.0977,0.39063 0.29297,0.52735 0.19141,0.14062 0.50977,0.27344 0.95508,0.39843 1.09375,0.30469 1.64062,0.82422 1.64063,1.5586 -1e-5,0.49609 -0.20118,0.91406 -0.60352,1.2539 -0.39844,0.33594 -0.88281,0.50391 -1.45312,0.50391 -0.52735,0 -1.0586,-0.16992 -1.59375,-0.50977 l 0,-0.83789"
         id="path10073"
         style="stroke:#000000;stroke-width:0.1;stroke-linecap:round;stroke-linejoin:round;stroke-miterlimit:4;stroke-opacity:1;stroke-dasharray:none" />
      <path
         d="m 195.964,476.11414 0.66211,0 0,1.66406 1.06055,0 0,0.64453 -1.06055,0 0,3.90234 c 0,0.16407 0.043,0.28907 0.12891,0.375 0.0859,0.082 0.21484,0.12305 0.38672,0.12305 0.15625,0 0.33789,-0.0625 0.54492,-0.1875 l 0,0.72656 c -0.25781,0.0859 -0.50977,0.12891 -0.75586,0.12891 -0.30078,0 -0.54687,-0.0879 -0.73828,-0.26367 -0.19141,-0.17578 -0.28711,-0.44141 -0.28711,-0.79688 l 0,-4.00781 -0.76758,0 0,-0.64453 0.76758,0 0.0586,-1.66406"
         id="path10075"
         style="stroke:#000000;stroke-width:0.1;stroke-linecap:round;stroke-linejoin:round;stroke-miterlimit:4;stroke-opacity:1;stroke-dasharray:none" />
      <path
         d="m 200.51674,477.64929 c 0.61328,10e-6 1.125,0.26759 1.53516,0.80274 0.41015,0.53125 0.61522,1.23633 0.61523,2.11523 -10e-6,0.50782 -0.082,0.98828 -0.24609,1.44141 -0.16016,0.44922 -0.41016,0.80859 -0.75,1.07812 -0.33985,0.26953 -0.73438,0.4043 -1.1836,0.4043 -0.66797,0 -1.19531,-0.27539 -1.58203,-0.82617 -0.38281,-0.55078 -0.57422,-1.24024 -0.57422,-2.06836 0,-0.66016 0.1211,-1.23047 0.36328,-1.71094 0.24219,-0.48046 0.53711,-0.80664 0.88477,-0.97852 0.35156,-0.17186 0.66406,-0.2578 0.9375,-0.25781 m 0.0469,0.69141 c -0.48828,0 -0.85547,0.20703 -1.10156,0.62109 -0.24609,0.41407 -0.36914,0.97852 -0.36914,1.69336 0,0.61328 0.12109,1.12696 0.36328,1.54102 0.24219,0.41406 0.58203,0.62109 1.01953,0.62109 0.41406,0 0.75391,-0.1914 1.01953,-0.57422 0.26953,-0.38672 0.4043,-0.94921 0.4043,-1.6875 0,-0.70312 -0.13086,-1.24804 -0.39258,-1.63476 -0.26172,-0.38672 -0.57617,-0.58008 -0.94336,-0.58008"
         id="path10077"
         style="stroke:#000000;stroke-width:0.1;stroke-linecap:round;stroke-linejoin:round;stroke-miterlimit:4;stroke-opacity:1;stroke-dasharray:none" />
      <path
         d="m 204.50111,478.60437 c 0.17578,-0.32031 0.3711,-0.55859 0.58594,-0.71484 0.21875,-0.16015 0.45703,-0.24023 0.71485,-0.24024 0.1914,10e-6 0.38476,0.043 0.58007,0.12891 l 0,0.6914 c -0.22656,-0.0859 -0.41797,-0.1289 -0.57422,-0.1289 -0.37109,0 -0.68164,0.17383 -0.93164,0.52148 -0.25,0.34766 -0.375,0.7461 -0.375,1.19532 l 0,3.30468 -0.7207,0 0,-5.58398 0.65625,0 0.0645,0.82617"
         id="path10079"
         style="stroke:#000000;stroke-width:0.1;stroke-linecap:round;stroke-linejoin:round;stroke-miterlimit:4;stroke-opacity:1;stroke-dasharray:none" />
      <path
         d="m 206.99135,477.7782 0.81445,0 1.37695,4.67578 1.20118,-4.67578 0.79101,0 -1.875,6.50976 c -0.19922,0.69531 -0.4043,1.16992 -0.61523,1.42383 -0.21094,0.25391 -0.51563,0.38086 -0.91406,0.38086 -0.14063,0 -0.29102,-0.043 -0.45118,-0.1289 l 0,-0.68555 c 0.16407,0.0508 0.29883,0.0762 0.4043,0.0762 0.21875,0 0.39453,-0.0977 0.52734,-0.29297 0.13281,-0.19141 0.28516,-0.58789 0.45704,-1.18945 l 0.12304,-0.44531 -1.83984,-5.64844"
         id="path10081"
         style="stroke:#000000;stroke-width:0.1;stroke-linecap:round;stroke-linejoin:round;stroke-miterlimit:4;stroke-opacity:1;stroke-dasharray:none" />
    </g>
    <g
       id="text2879"
       style="font-size:12px;font-style:normal;font-variant:normal;font-weight:normal;font-stretch:condensed;text-align:start;line-height:100%;writing-mode:lr-tb;text-anchor:start;fill:#000000;fill-opacity:1;stroke:#000000;stroke-width:0.1;stroke-linecap:round;stroke-linejoin:round;stroke-miterlimit:4;stroke-opacity:1;stroke-dasharray:none;font-family:Abadi MT Condensed Light;-inkscape-font-specification:'Abadi MT Condensed Light, Condensed'">
      <path
         d="m 241.76172,430.18835 2.25586,0 c 0.71093,10e-6 1.26953,0.17775 1.67578,0.53321 0.40624,0.35157 0.60937,0.875 0.60937,1.57031 0,0.74219 -0.23047,1.32032 -0.6914,1.73438 -0.46094,0.41406 -1.07032,0.62109 -1.82813,0.62109 l -1.21875,0 0,3.71484 -0.80273,0 0,-8.17383 m 0.80273,0.70313 0,3.06445 1.20117,0 c 0.51172,10e-6 0.92383,-0.14062 1.23633,-0.42187 0.3125,-0.28515 0.46875,-0.68164 0.46875,-1.18946 0,-0.45702 -0.12891,-0.81249 -0.38672,-1.0664 -0.25781,-0.25781 -0.61719,-0.38671 -1.07812,-0.38672 l -1.44141,0"
         id="path10018"
         style="stroke:#000000;stroke-width:0.1;stroke-linecap:round;stroke-linejoin:round;stroke-miterlimit:4;stroke-opacity:1;stroke-dasharray:none" />
      <path
         d="m 247.32227,433.14734 c 0.59765,-0.33203 1.0996,-0.49804 1.50585,-0.49805 0.58594,10e-6 1.0293,0.16993 1.33008,0.50977 0.30078,0.34375 0.45117,0.80469 0.45117,1.38281 l 0,2.94727 c 0,0.21484 0.10156,0.32226 0.30469,0.32226 0.10547,0 0.21094,-0.0293 0.31641,-0.0879 l 0,0.63867 c -0.18751,0.0859 -0.37891,0.12891 -0.57422,0.12891 -0.50782,0 -0.76953,-0.29883 -0.78516,-0.89649 -0.19141,0.29688 -0.4043,0.52149 -0.63867,0.67383 -0.23438,0.14844 -0.48828,0.22266 -0.76172,0.22266 -0.44531,0 -0.81836,-0.16211 -1.11914,-0.48633 -0.30078,-0.32422 -0.45117,-0.7207 -0.45117,-1.18945 0,-0.49609 0.18555,-0.9082 0.55664,-1.23633 0.375,-0.32812 1.17969,-0.55078 2.41406,-0.66797 l 0,-0.48047 c 0,-0.3164 -0.10352,-0.57617 -0.31054,-0.77929 -0.20313,-0.20703 -0.45704,-0.31055 -0.76172,-0.31055 -0.4336,0 -0.92578,0.21485 -1.47656,0.64453 l 0,-0.83789 m 2.54882,2.33789 c -0.96484,0.11719 -1.57617,0.28321 -1.83398,0.49805 -0.25391,0.21094 -0.38086,0.48047 -0.38086,0.80859 0,0.29688 0.0937,0.54297 0.28125,0.73828 0.1875,0.19141 0.42383,0.28711 0.70898,0.28711 0.35547,0 0.64844,-0.14844 0.87891,-0.44531 0.23047,-0.29688 0.3457,-0.67773 0.3457,-1.14258 l 0,-0.74414"
         id="path10020"
         style="stroke:#000000;stroke-width:0.1;stroke-linecap:round;stroke-linejoin:round;stroke-miterlimit:4;stroke-opacity:1;stroke-dasharray:none" />
      <path
         d="m 252.31445,431.11414 0.66211,0 0,1.66406 1.06055,0 0,0.64453 -1.06055,0 0,3.90234 c 0,0.16407 0.043,0.28907 0.12891,0.375 0.0859,0.082 0.21484,0.12305 0.38672,0.12305 0.15625,0 0.33789,-0.0625 0.54492,-0.1875 l 0,0.72656 c -0.25782,0.0859 -0.50977,0.12891 -0.75586,0.12891 -0.30078,0 -0.54688,-0.0879 -0.73828,-0.26367 -0.19141,-0.17578 -0.28711,-0.44141 -0.28711,-0.79688 l 0,-4.00781 -0.76758,0 0,-0.64453 0.76758,0 0.0586,-1.66406"
         id="path10022"
         style="stroke:#000000;stroke-width:0.1;stroke-linecap:round;stroke-linejoin:round;stroke-miterlimit:4;stroke-opacity:1;stroke-dasharray:none" />
      <path
         d="m 255.19727,431.11414 0.6621,0 0,1.66406 1.06055,0 0,0.64453 -1.06055,0 0,3.90234 c 0,0.16407 0.043,0.28907 0.12891,0.375 0.0859,0.082 0.21484,0.12305 0.38672,0.12305 0.15625,0 0.33789,-0.0625 0.54492,-0.1875 l 0,0.72656 c -0.25781,0.0859 -0.50977,0.12891 -0.75586,0.12891 -0.30078,0 -0.54687,-0.0879 -0.73828,-0.26367 -0.19141,-0.17578 -0.28711,-0.44141 -0.28711,-0.79688 l 0,-4.00781 -0.76758,0 0,-0.64453 0.76758,0 0.0586,-1.66406"
         id="path10024"
         style="stroke:#000000;stroke-width:0.1;stroke-linecap:round;stroke-linejoin:round;stroke-miterlimit:4;stroke-opacity:1;stroke-dasharray:none" />
      <path
         d="m 261.50781,437.77625 c -0.59375,0.47656 -1.17383,0.71484 -1.74023,0.71484 -0.66407,0 -1.20118,-0.26563 -1.61133,-0.79688 -0.41016,-0.53515 -0.61523,-1.23046 -0.61523,-2.08593 0,-0.88281 0.21093,-1.5957 0.63281,-2.13868 0.42578,-0.54687 0.96289,-0.8203 1.61133,-0.82031 0.57421,10e-6 1.03515,0.22071 1.38281,0.66211 0.34765,0.43751 0.52148,0.99219 0.52148,1.66406 l 0,0.36329 -3.39258,0 0,0.2871 c 0,0.72657 0.15039,1.2754 0.45118,1.64649 0.30468,0.37109 0.66015,0.55664 1.0664,0.55664 0.5625,0 1.12695,-0.31055 1.69336,-0.93164 l 0,0.87891 m -0.60351,-3.06446 c -0.0156,-0.46484 -0.13477,-0.81249 -0.35743,-1.04297 -0.22265,-0.23437 -0.48242,-0.35155 -0.77929,-0.35156 -0.30079,1e-5 -0.58204,0.11719 -0.84375,0.35156 -0.25782,0.23048 -0.44141,0.57813 -0.55078,1.04297 l 2.53125,0"
         id="path10026"
         style="stroke:#000000;stroke-width:0.1;stroke-linecap:round;stroke-linejoin:round;stroke-miterlimit:4;stroke-opacity:1;stroke-dasharray:none" />
      <path
         d="m 263.47656,433.60437 c 0.17578,-0.32031 0.37109,-0.55859 0.58594,-0.71484 0.21875,-0.16015 0.45703,-0.24023 0.71484,-0.24024 0.19141,10e-6 0.38477,0.043 0.58008,0.12891 l 0,0.6914 c -0.22656,-0.0859 -0.41797,-0.1289 -0.57422,-0.1289 -0.37109,0 -0.68164,0.17383 -0.93164,0.52148 -0.25,0.34766 -0.375,0.7461 -0.375,1.19532 l 0,3.30468 -0.7207,0 0,-5.58398 0.65625,0 0.0645,0.82617"
         id="path10028"
         style="stroke:#000000;stroke-width:0.1;stroke-linecap:round;stroke-linejoin:round;stroke-miterlimit:4;stroke-opacity:1;stroke-dasharray:none" />
      <path
         d="m 266.56445,432.7782 0.66211,0 0.0703,0.79687 c 0.19532,-0.30859 0.41602,-0.53905 0.66211,-0.6914 0.25,-0.15625 0.52539,-0.23437 0.82618,-0.23438 0.47656,10e-6 0.84765,0.16016 1.11328,0.48047 0.26562,0.32032 0.39843,0.74805 0.39843,1.2832 l 0,3.94922 -0.74414,0 0,-3.94922 c 0,-0.32812 -0.0859,-0.58984 -0.25781,-0.78515 -0.17188,-0.19531 -0.39453,-0.29297 -0.66797,-0.29297 -0.37109,0 -0.68555,0.16407 -0.94336,0.49219 -0.25781,0.32422 -0.38672,0.69922 -0.38672,1.125 l 0,3.41015 -0.73242,0 0,-5.58398"
         id="path10030"
         style="stroke:#000000;stroke-width:0.1;stroke-linecap:round;stroke-linejoin:round;stroke-miterlimit:4;stroke-opacity:1;stroke-dasharray:none" />
      <path
         d="m 274.29883,430.18835 0.73828,0 0,3.35157 c 0.18359,-0.29687 0.39648,-0.51953 0.63867,-0.66797 0.24219,-0.14843 0.51562,-0.22265 0.82031,-0.22266 0.45703,10e-6 0.82227,0.16016 1.09571,0.48047 0.27734,0.32032 0.41601,0.72852 0.41601,1.22461 l 0,4.00781 -0.73242,0 0,-4.00781 c 0,-0.30859 -0.0899,-0.55468 -0.26953,-0.73828 -0.17579,-0.1875 -0.39649,-0.28125 -0.66211,-0.28125 -0.36719,0 -0.67774,0.15821 -0.93164,0.47461 -0.25,0.31641 -0.375,0.6836 -0.375,1.10156 l 0,3.45117 -0.73828,0 0,-8.17383"
         id="path10032"
         style="stroke:#000000;stroke-width:0.1;stroke-linecap:round;stroke-linejoin:round;stroke-miterlimit:4;stroke-opacity:1;stroke-dasharray:none" />
      <path
         d="m 279.66016,430.30554 c 0.28906,10e-6 0.43359,0.22071 0.43359,0.66211 0,0.46485 -0.14844,0.69727 -0.44531,0.69727 -0.28516,0 -0.42774,-0.22461 -0.42774,-0.67383 0,-0.45702 0.14649,-0.68554 0.43946,-0.68555 m -0.375,2.47266 0.73242,0 0,5.58398 -0.73242,0 0,-5.58398"
         id="path10034"
         style="stroke:#000000;stroke-width:0.1;stroke-linecap:round;stroke-linejoin:round;stroke-miterlimit:4;stroke-opacity:1;stroke-dasharray:none" />
      <path
         d="m 281.03711,437.14343 c 0.54687,0.44532 1.06836,0.66797 1.56445,0.66797 0.38281,0 0.69922,-0.0957 0.94922,-0.28711 0.25,-0.19531 0.375,-0.4414 0.375,-0.73828 0,-0.21484 -0.084,-0.39453 -0.25195,-0.53906 -0.16407,-0.14453 -0.48438,-0.28711 -0.96094,-0.42774 -0.58594,-0.17577 -1.01367,-0.37695 -1.2832,-0.60351 -0.26953,-0.22656 -0.4043,-0.54101 -0.4043,-0.94336 0,-0.46093 0.18164,-0.8457 0.54492,-1.1543 0.36328,-0.31249 0.8125,-0.46874 1.34766,-0.46875 0.42968,10e-6 0.91796,0.15235 1.46484,0.45703 l 0,0.83203 c -0.46484,-0.40624 -0.94141,-0.60937 -1.42969,-0.60937 -0.33593,0 -0.61328,0.0899 -0.83203,0.26953 -0.21484,0.17969 -0.32226,0.39649 -0.32226,0.65039 0,0.21485 0.0976,0.39063 0.29297,0.52735 0.1914,0.14062 0.50976,0.27344 0.95507,0.39843 1.09375,0.30469 1.64063,0.82422 1.64063,1.5586 0,0.49609 -0.20118,0.91406 -0.60352,1.2539 -0.39844,0.33594 -0.88281,0.50391 -1.45312,0.50391 -0.52735,0 -1.0586,-0.16992 -1.59375,-0.50977 l 0,-0.83789"
         id="path10036"
         style="stroke:#000000;stroke-width:0.1;stroke-linecap:round;stroke-linejoin:round;stroke-miterlimit:4;stroke-opacity:1;stroke-dasharray:none" />
      <path
         d="m 285.92383,431.11414 0.66211,0 0,1.66406 1.06054,0 0,0.64453 -1.06054,0 0,3.90234 c 0,0.16407 0.043,0.28907 0.1289,0.375 0.0859,0.082 0.21485,0.12305 0.38672,0.12305 0.15625,0 0.33789,-0.0625 0.54492,-0.1875 l 0,0.72656 c -0.25781,0.0859 -0.50976,0.12891 -0.75586,0.12891 -0.30078,0 -0.54687,-0.0879 -0.73828,-0.26367 -0.1914,-0.17578 -0.28711,-0.44141 -0.28711,-0.79688 l 0,-4.00781 -0.76757,0 0,-0.64453 0.76757,0 0.0586,-1.66406"
         id="path10038"
         style="stroke:#000000;stroke-width:0.1;stroke-linecap:round;stroke-linejoin:round;stroke-miterlimit:4;stroke-opacity:1;stroke-dasharray:none" />
      <path
         d="m 290.47656,432.64929 c 0.61328,10e-6 1.125,0.26759 1.53516,0.80274 0.41015,0.53125 0.61523,1.23633 0.61523,2.11523 0,0.50782 -0.082,0.98828 -0.24609,1.44141 -0.16016,0.44922 -0.41016,0.80859 -0.75,1.07812 -0.33985,0.26953 -0.73438,0.4043 -1.18359,0.4043 -0.66798,0 -1.19532,-0.27539 -1.58204,-0.82617 -0.38281,-0.55078 -0.57421,-1.24024 -0.57421,-2.06836 0,-0.66016 0.12109,-1.23047 0.36328,-1.71094 0.24218,-0.48046 0.5371,-0.80664 0.88476,-0.97852 0.35156,-0.17186 0.66406,-0.2578 0.9375,-0.25781 m 0.0469,0.69141 c -0.48829,0 -0.85547,0.20703 -1.10157,0.62109 -0.24609,0.41407 -0.36914,0.97852 -0.36914,1.69336 0,0.61328 0.1211,1.12696 0.36329,1.54102 0.24218,0.41406 0.58202,0.62109 1.01953,0.62109 0.41406,0 0.7539,-0.1914 1.01953,-0.57422 0.26953,-0.38672 0.40429,-0.94921 0.40429,-1.6875 0,-0.70312 -0.13086,-1.24804 -0.39257,-1.63476 -0.26173,-0.38672 -0.57618,-0.58008 -0.94336,-0.58008"
         id="path10040"
         style="stroke:#000000;stroke-width:0.1;stroke-linecap:round;stroke-linejoin:round;stroke-miterlimit:4;stroke-opacity:1;stroke-dasharray:none" />
      <path
         d="m 294.46094,433.60437 c 0.17578,-0.32031 0.37109,-0.55859 0.58593,-0.71484 0.21875,-0.16015 0.45703,-0.24023 0.71485,-0.24024 0.1914,10e-6 0.38476,0.043 0.58008,0.12891 l 0,0.6914 c -0.22657,-0.0859 -0.41797,-0.1289 -0.57422,-0.1289 -0.3711,0 -0.68164,0.17383 -0.93164,0.52148 -0.25,0.34766 -0.375,0.7461 -0.375,1.19532 l 0,3.30468 -0.72071,0 0,-5.58398 0.65625,0 0.0645,0.82617"
         id="path10042"
         style="stroke:#000000;stroke-width:0.1;stroke-linecap:round;stroke-linejoin:round;stroke-miterlimit:4;stroke-opacity:1;stroke-dasharray:none" />
      <path
         d="m 296.95117,432.7782 0.81445,0 1.37696,4.67578 1.20117,-4.67578 0.79102,0 -1.875,6.50976 c -0.19923,0.69531 -0.4043,1.16992 -0.61524,1.42383 -0.21094,0.25391 -0.51562,0.38086 -0.91406,0.38086 -0.14063,0 -0.29102,-0.043 -0.45117,-0.1289 l 0,-0.68555 c 0.16406,0.0508 0.29882,0.0762 0.40429,0.0762 0.21875,0 0.39453,-0.0977 0.52735,-0.29297 0.13281,-0.19141 0.28515,-0.58789 0.45703,-1.18945 l 0.12305,-0.44531 -1.83985,-5.64844"
         id="path10044"
         style="stroke:#000000;stroke-width:0.1;stroke-linecap:round;stroke-linejoin:round;stroke-miterlimit:4;stroke-opacity:1;stroke-dasharray:none" />
      <path
         d="m 304.79102,431.11414 0.6621,0 0,1.66406 1.06055,0 0,0.64453 -1.06055,0 0,3.90234 c 0,0.16407 0.043,0.28907 0.12891,0.375 0.0859,0.082 0.21484,0.12305 0.38672,0.12305 0.15625,0 0.33789,-0.0625 0.54492,-0.1875 l 0,0.72656 c -0.25781,0.0859 -0.50977,0.12891 -0.75586,0.12891 -0.30078,0 -0.54687,-0.0879 -0.73828,-0.26367 -0.19141,-0.17578 -0.28711,-0.44141 -0.28711,-0.79688 l 0,-4.00781 -0.76758,0 0,-0.64453 0.76758,0 0.0586,-1.66406"
         id="path10046"
         style="stroke:#000000;stroke-width:0.1;stroke-linecap:round;stroke-linejoin:round;stroke-miterlimit:4;stroke-opacity:1;stroke-dasharray:none" />
      <path
         d="m 307.58008,433.14734 c 0.59765,-0.33203 1.09961,-0.49804 1.50586,-0.49805 0.58593,10e-6 1.02929,0.16993 1.33008,0.50977 0.30077,0.34375 0.45116,0.80469 0.45117,1.38281 l 0,2.94727 c -10e-6,0.21484 0.10156,0.32226 0.30468,0.32226 0.10547,0 0.21094,-0.0293 0.31641,-0.0879 l 0,0.63867 c -0.1875,0.0859 -0.37891,0.12891 -0.57422,0.12891 -0.50781,0 -0.76953,-0.29883 -0.78515,-0.89649 -0.19141,0.29688 -0.4043,0.52149 -0.63868,0.67383 -0.23437,0.14844 -0.48828,0.22266 -0.76171,0.22266 -0.44532,0 -0.81836,-0.16211 -1.11915,-0.48633 -0.30078,-0.32422 -0.45117,-0.7207 -0.45117,-1.18945 0,-0.49609 0.18555,-0.9082 0.55664,-1.23633 0.375,-0.32812 1.17969,-0.55078 2.41407,-0.66797 l 0,-0.48047 c -1e-5,-0.3164 -0.10352,-0.57617 -0.31055,-0.77929 -0.20313,-0.20703 -0.45703,-0.31055 -0.76172,-0.31055 -0.43359,0 -0.92578,0.21485 -1.47656,0.64453 l 0,-0.83789 m 2.54883,2.33789 c -0.96485,0.11719 -1.57618,0.28321 -1.83399,0.49805 -0.25391,0.21094 -0.38086,0.48047 -0.38086,0.80859 0,0.29688 0.0937,0.54297 0.28125,0.73828 0.1875,0.19141 0.42383,0.28711 0.70899,0.28711 0.35546,0 0.64843,-0.14844 0.8789,-0.44531 0.23047,-0.29688 0.3457,-0.67773 0.34571,-1.14258 l 0,-0.74414"
         id="path10048"
         style="stroke:#000000;stroke-width:0.1;stroke-linecap:round;stroke-linejoin:round;stroke-miterlimit:4;stroke-opacity:1;stroke-dasharray:none" />
      <path
         d="m 313.16406,430.06531 0,3.52148 c 0.1875,-0.31249 0.39649,-0.54687 0.62696,-0.70312 0.23046,-0.15625 0.48046,-0.23437 0.75,-0.23438 0.58984,10e-6 1.0664,0.2793 1.42968,0.83789 0.36719,0.55469 0.55078,1.22657 0.55078,2.01563 0,0.85547 -0.20508,1.56836 -0.61523,2.13867 -0.41016,0.56641 -0.91407,0.84961 -1.51172,0.84961 -0.22656,0 -0.42383,-0.043 -0.5918,-0.12891 -0.16406,-0.0898 -0.37695,-0.2539 -0.63867,-0.49218 l -0.19336,0.49218 -0.54492,0 0,-8.29687 0.73828,0 m 0,7.10742 c 0.16797,0.21094 0.33984,0.37109 0.51563,0.48047 0.17968,0.10547 0.36328,0.1582 0.55078,0.1582 0.44531,0 0.80859,-0.21094 1.08984,-0.63281 0.28515,-0.42187 0.42773,-0.97266 0.42774,-1.65234 -10e-6,-0.61328 -0.12305,-1.13281 -0.36914,-1.5586 -0.2461,-0.42578 -0.57423,-0.63867 -0.98438,-0.63867 -0.37109,0 -0.66992,0.17579 -0.89648,0.52734 -0.22266,0.34766 -0.33399,0.75587 -0.33399,1.22461 l 0,2.0918"
         id="path10050"
         style="stroke:#000000;stroke-width:0.1;stroke-linecap:round;stroke-linejoin:round;stroke-miterlimit:4;stroke-opacity:1;stroke-dasharray:none" />
      <path
         d="m 317.41211,430.18835 0.73828,0 0,8.17383 -0.73828,0 0,-8.17383"
         id="path10052"
         style="stroke:#000000;stroke-width:0.1;stroke-linecap:round;stroke-linejoin:round;stroke-miterlimit:4;stroke-opacity:1;stroke-dasharray:none" />
      <path
         d="m 323.125,437.77625 c -0.59375,0.47656 -1.17383,0.71484 -1.74023,0.71484 -0.66407,0 -1.20118,-0.26563 -1.61133,-0.79688 -0.41016,-0.53515 -0.61524,-1.23046 -0.61524,-2.08593 0,-0.88281 0.21094,-1.5957 0.63282,-2.13868 0.42578,-0.54687 0.96288,-0.8203 1.61132,-0.82031 0.57422,10e-6 1.03516,0.22071 1.38282,0.66211 0.34765,0.43751 0.52148,0.99219 0.52148,1.66406 l 0,0.36329 -3.39258,0 0,0.2871 c 0,0.72657 0.15039,1.2754 0.45117,1.64649 0.30469,0.37109 0.66016,0.55664 1.06641,0.55664 0.5625,0 1.12695,-0.31055 1.69336,-0.93164 l 0,0.87891 m -0.60352,-3.06446 c -0.0156,-0.46484 -0.13476,-0.81249 -0.35742,-1.04297 -0.22266,-0.23437 -0.48242,-0.35155 -0.77929,-0.35156 -0.30079,1e-5 -0.58204,0.11719 -0.84375,0.35156 -0.25782,0.23048 -0.44141,0.57813 -0.55079,1.04297 l 2.53125,0"
         id="path10054"
         style="stroke:#000000;stroke-width:0.1;stroke-linecap:round;stroke-linejoin:round;stroke-miterlimit:4;stroke-opacity:1;stroke-dasharray:none" />
    </g>
    <rect
       width="60"
       height="145"
       x="251"
       y="447.49469"
       id="rect2883"
       style="fill:none;stroke:#000000;stroke-width:1.97863579;stroke-linecap:butt;stroke-miterlimit:4;stroke-dasharray:none;stroke-dashoffset:0" />
    <g
       transform="matrix(0.8,0,0,1,41,-13.999997)"
       id="g3665">
      <path
         d="m 150,507.36218 50,0"
         id="path3657"
         style="fill:none;stroke:#000000;stroke-width:1.5;stroke-linecap:butt;stroke-linejoin:miter;stroke-miterlimit:4;stroke-opacity:1;stroke-dasharray:none" />
      <path
         d="m 150,522.36218 50,0"
         id="path3659"
         style="fill:none;stroke:#000000;stroke-width:1.5;stroke-linecap:butt;stroke-linejoin:miter;stroke-miterlimit:4;stroke-opacity:1;stroke-dasharray:none" />
    </g>
    <g
       id="text3661"
       style="font-size:12px;font-style:normal;font-variant:normal;font-weight:normal;font-stretch:condensed;text-align:start;line-height:100%;writing-mode:lr-tb;text-anchor:start;fill:#000000;fill-opacity:1;stroke:#000000;stroke-width:0.1;stroke-linecap:round;stroke-linejoin:round;stroke-miterlimit:4;stroke-opacity:1;stroke-dasharray:none;font-family:Abadi MT Condensed Light;-inkscape-font-specification:'Abadi MT Condensed Light, Condensed'">
      <path
         d="m 172.71191,496.82507 c 0.53125,1e-5 0.98633,0.18556 1.36524,0.55664 0.3789,0.3672 0.64257,0.89454 0.79101,1.58204 0.15234,0.68359 0.22851,1.35547 0.22852,2.01562 -1e-5,1.19532 -0.21876,2.14844 -0.65625,2.85938 -0.4336,0.70703 -1.00977,1.06054 -1.72852,1.06054 -0.45312,0 -0.87109,-0.16601 -1.2539,-0.49804 -0.37891,-0.33594 -0.6543,-0.83789 -0.82617,-1.50586 -0.16797,-0.67188 -0.25196,-1.37891 -0.25196,-2.1211 0,-0.85156 0.11328,-1.58984 0.33985,-2.21484 0.23046,-0.62499 0.52539,-1.07031 0.88476,-1.33594 0.36328,-0.26562 0.73242,-0.39843 1.10742,-0.39844 m 0.0762,0.66797 c -0.54298,10e-6 -0.95313,0.30079 -1.23047,0.90235 -0.27735,0.60156 -0.41602,1.43164 -0.41602,2.49023 0,1.05078 0.13867,1.86914 0.41602,2.45508 0.28125,0.58594 0.66796,0.87891 1.16015,0.8789 0.3125,10e-6 0.60156,-0.13281 0.86719,-0.39843 0.26953,-0.26953 0.46289,-0.70899 0.58008,-1.31836 0.11718,-0.60937 0.17578,-1.19336 0.17578,-1.75196 0,-1.05468 -0.1543,-1.86132 -0.46289,-2.41992 -0.30469,-0.55858 -0.66797,-0.83788 -1.08984,-0.83789"
         id="path10084"
         style="stroke:#000000;stroke-width:0.1;stroke-linecap:round;stroke-linejoin:round;stroke-miterlimit:4;stroke-opacity:1;stroke-dasharray:none" />
      <path
         d="m 178.2666,496.95984 0.60352,0 0,7.81055 -0.69727,0 0,-5.90625 -1.30078,0 0,-0.5625 0.30469,0 c 0.33593,0 0.60156,-0.0918 0.79687,-0.27539 0.19531,-0.1875 0.29297,-0.46484 0.29297,-0.83204 l 0,-0.23437"
         id="path10086"
         style="stroke:#000000;stroke-width:0.1;stroke-linecap:round;stroke-linejoin:round;stroke-miterlimit:4;stroke-opacity:1;stroke-dasharray:none" />
      <path
         d="m 183.77441,496.95984 0.60352,0 0,7.81055 -0.69727,0 0,-5.90625 -1.30078,0 0,-0.5625 0.30469,0 c 0.33594,0 0.60156,-0.0918 0.79688,-0.27539 0.19531,-0.1875 0.29296,-0.46484 0.29296,-0.83204 l 0,-0.23437"
         id="path10088"
         style="stroke:#000000;stroke-width:0.1;stroke-linecap:round;stroke-linejoin:round;stroke-miterlimit:4;stroke-opacity:1;stroke-dasharray:none" />
      <path
         d="m 189.23535,496.82507 c 0.53125,1e-5 0.98633,0.18556 1.36524,0.55664 0.3789,0.3672 0.64257,0.89454 0.79101,1.58204 0.15234,0.68359 0.22851,1.35547 0.22852,2.01562 -10e-6,1.19532 -0.21876,2.14844 -0.65625,2.85938 -0.4336,0.70703 -1.00977,1.06054 -1.72852,1.06054 -0.45313,0 -0.87109,-0.16601 -1.2539,-0.49804 -0.37891,-0.33594 -0.6543,-0.83789 -0.82618,-1.50586 -0.16797,-0.67188 -0.25195,-1.37891 -0.25195,-2.1211 0,-0.85156 0.11328,-1.58984 0.33984,-2.21484 0.23047,-0.62499 0.52539,-1.07031 0.88477,-1.33594 0.36328,-0.26562 0.73242,-0.39843 1.10742,-0.39844 m 0.0762,0.66797 c -0.54297,10e-6 -0.95312,0.30079 -1.23047,0.90235 -0.27734,0.60156 -0.41601,1.43164 -0.41601,2.49023 0,1.05078 0.13867,1.86914 0.41601,2.45508 0.28125,0.58594 0.66797,0.87891 1.16016,0.8789 0.3125,10e-6 0.60156,-0.13281 0.86719,-0.39843 0.26953,-0.26953 0.46289,-0.70899 0.58008,-1.31836 0.11718,-0.60937 0.17577,-1.19336 0.17578,-1.75196 -1e-5,-1.05468 -0.1543,-1.86132 -0.46289,-2.41992 -0.30469,-0.55858 -0.66797,-0.83788 -1.08985,-0.83789"
         id="path10090"
         style="stroke:#000000;stroke-width:0.1;stroke-linecap:round;stroke-linejoin:round;stroke-miterlimit:4;stroke-opacity:1;stroke-dasharray:none" />
    </g>
    <path
       d="m 161,513.36218 0,15"
       id="path3669"
       style="fill:none;stroke:#000000;stroke-width:0.43301275;stroke-linecap:butt;stroke-linejoin:miter;stroke-miterlimit:4;stroke-opacity:1;stroke-dasharray:none" />
    <path
       d="m 201,513.36218 0,15"
       id="path3671"
       style="fill:none;stroke:#000000;stroke-width:0.43301275;stroke-linecap:butt;stroke-linejoin:miter;stroke-miterlimit:4;stroke-opacity:1;stroke-dasharray:none" />
    <g
       id="g9158">
      <path
         d="m 163,523.36218 13,0"
         id="path3673"
         style="fill:none;stroke:#000000;stroke-width:0.89999998;stroke-linecap:butt;stroke-linejoin:miter;stroke-miterlimit:4;stroke-opacity:1;stroke-dasharray:none;marker-start:url(#Arrow1Mstart);marker-end:none" />
      <path
         d="m 199,523.36218 -13,0"
         id="path3675"
         style="fill:none;stroke:#000000;stroke-width:0.89999998;stroke-linecap:butt;stroke-linejoin:miter;stroke-miterlimit:4;stroke-opacity:1;stroke-dasharray:none;marker-start:url(#Arrow1Mstart);marker-end:none" />
    </g>
    <g
       id="text5241"
       style="font-size:12px;font-style:normal;font-variant:normal;font-weight:normal;font-stretch:condensed;text-align:start;line-height:100%;writing-mode:lr-tb;text-anchor:start;fill:#000000;fill-opacity:1;stroke:#000000;stroke-width:0.1;stroke-linecap:round;stroke-linejoin:round;stroke-miterlimit:4;stroke-opacity:1;stroke-dasharray:none;font-family:Abadi MT Condensed Light;-inkscape-font-specification:Bitstream Vera Sans">
      <path
         d="m 179.13379,520.63464 0.66211,0 0.0703,0.79688 c 0.19531,-0.30859 0.41601,-0.53906 0.66211,-0.69141 0.25,-0.15624 0.52539,-0.23437 0.82617,-0.23437 0.47656,0 0.84765,0.16016 1.11328,0.48047 0.26562,0.32031 0.39844,0.74805 0.39844,1.2832 l 0,3.94922 -0.74414,0 0,-3.94922 c 0,-0.32812 -0.0859,-0.58984 -0.25781,-0.78516 -0.17188,-0.1953 -0.39454,-0.29296 -0.66797,-0.29297 -0.3711,10e-6 -0.68555,0.16407 -0.94336,0.49219 -0.25781,0.32422 -0.38672,0.69922 -0.38672,1.125 l 0,3.41016 -0.73242,0 0,-5.58399"
         id="path9994"
         style="stroke:#000000;stroke-width:0.1;stroke-linecap:round;stroke-linejoin:round;stroke-miterlimit:4;stroke-opacity:1;stroke-dasharray:none;-inkscape-font-specification:Bitstream Vera Sans" />
    </g>
    <path
       d="m 251,463.36218 60,0"
       id="path5249"
       style="fill:none;stroke:#000000;stroke-width:0.75;stroke-linecap:butt;stroke-linejoin:miter;stroke-miterlimit:4;stroke-opacity:1;stroke-dasharray:none" />
    <path
       d="m 251,478.36218 60,0"
       id="path5251"
       style="fill:none;stroke:#000000;stroke-width:0.75;stroke-linecap:butt;stroke-linejoin:miter;stroke-miterlimit:4;stroke-opacity:1;stroke-dasharray:none" />
    <path
       d="m 251.79799,492.49469 60,0"
       id="path5253"
       style="fill:none;stroke:#000000;stroke-width:0.75;stroke-linecap:butt;stroke-linejoin:miter;stroke-miterlimit:4;stroke-opacity:1;stroke-dasharray:none" />
    <path
       d="m 251.79799,507.49469 60,0"
       id="path5255"
       style="fill:none;stroke:#000000;stroke-width:0.75;stroke-linecap:butt;stroke-linejoin:miter;stroke-miterlimit:4;stroke-opacity:1;stroke-dasharray:none" />
    <path
       d="m 251,533.36218 60,0"
       id="path5257"
       style="fill:none;stroke:#000000;stroke-width:0.75;stroke-linecap:butt;stroke-linejoin:miter;stroke-miterlimit:4;stroke-opacity:1;stroke-dasharray:none" />
    <g
       transform="matrix(0,0.33416605,-0.33416605,0,473.8761,467.3793)"
       id="text5633"
       style="font-size:40px;font-style:normal;font-weight:normal;line-height:125%;fill:#000000;fill-opacity:1;stroke:none;font-family:Bitstream Vera Sans">
      <path
         d="m 148.20312,574.08093 c 0.92448,1e-5 1.67969,0.306 2.26563,0.91797 0.59895,0.61198 0.89843,1.34115 0.89844,2.1875 -1e-5,0.85938 -0.29949,1.59505 -0.89844,2.20703 -0.59897,0.59896 -1.31511,0.89844 -2.14844,0.89844 -0.82031,0 -1.52995,-0.29948 -2.1289,-0.89844 -0.59897,-0.61198 -0.89844,-1.34114 -0.89844,-2.1875 0,-0.88541 0.30599,-1.6276 0.91797,-2.22656 0.61197,-0.59895 1.27603,-0.89843 1.99218,-0.89844"
         id="path5638"
         style="font-variant:normal;font-stretch:condensed;text-align:start;line-height:125%;writing-mode:lr-tb;text-anchor:start;font-family:Abadi MT Condensed Extra Bold;-inkscape-font-specification:'Abadi MT Condensed Extra Bold, Condensed'" />
      <path
         d="m 159.92187,574.08093 c 0.92448,1e-5 1.67969,0.306 2.26563,0.91797 0.59895,0.61198 0.89843,1.34115 0.89844,2.1875 -1e-5,0.85938 -0.29949,1.59505 -0.89844,2.20703 -0.59897,0.59896 -1.31511,0.89844 -2.14844,0.89844 -0.82031,0 -1.52995,-0.29948 -2.1289,-0.89844 -0.59897,-0.61198 -0.89844,-1.34114 -0.89844,-2.1875 0,-0.88541 0.30599,-1.6276 0.91797,-2.22656 0.61197,-0.59895 1.27603,-0.89843 1.99218,-0.89844"
         id="path5640"
         style="font-variant:normal;font-stretch:condensed;text-align:start;line-height:125%;writing-mode:lr-tb;text-anchor:start;font-family:Abadi MT Condensed Extra Bold;-inkscape-font-specification:'Abadi MT Condensed Extra Bold, Condensed'" />
      <path
         d="m 171.64062,574.08093 c 0.92448,1e-5 1.67969,0.306 2.26563,0.91797 0.59895,0.61198 0.89843,1.34115 0.89844,2.1875 -1e-5,0.85938 -0.29949,1.59505 -0.89844,2.20703 -0.59897,0.59896 -1.31511,0.89844 -2.14844,0.89844 -0.82031,0 -1.52995,-0.29948 -2.1289,-0.89844 -0.59897,-0.61198 -0.89844,-1.34114 -0.89844,-2.1875 0,-0.88541 0.30599,-1.6276 0.91797,-2.22656 0.61197,-0.59895 1.27603,-0.89843 1.99218,-0.89844"
         id="path5642"
         style="font-variant:normal;font-stretch:condensed;text-align:start;line-height:125%;writing-mode:lr-tb;text-anchor:start;font-family:Abadi MT Condensed Extra Bold;-inkscape-font-specification:'Abadi MT Condensed Extra Bold, Condensed'" />
    </g>
    <g
       id="text5650"
       style="font-size:10px;font-style:normal;font-variant:normal;font-weight:normal;font-stretch:condensed;text-align:start;line-height:100%;writing-mode:lr-tb;text-anchor:start;fill:#000000;fill-opacity:1;stroke:#000000;stroke-width:0.1;stroke-linecap:round;stroke-linejoin:round;stroke-miterlimit:4;stroke-opacity:1;stroke-dasharray:none;font-family:Abadi MT Condensed Light;-inkscape-font-specification:'Abadi MT Condensed Light, Condensed'">
      <path
         d="m 176.03418,529.30524 0,2.93457 c 0.15625,-0.26042 0.3304,-0.45573 0.52246,-0.58594 0.19206,-0.1302 0.40039,-0.19531 0.625,-0.19531 0.49153,0 0.88867,0.23275 1.19141,0.69824 0.30598,0.46224 0.45898,1.02214 0.45898,1.67969 0,0.71289 -0.1709,1.30696 -0.51269,1.78222 -0.3418,0.47201 -0.76173,0.70801 -1.25977,0.70801 -0.1888,0 -0.35319,-0.0358 -0.49316,-0.10742 -0.13672,-0.0749 -0.31413,-0.21159 -0.53223,-0.41016 l -0.16113,0.41016 -0.4541,0 0,-6.91406 0.61523,0 m 0,5.92285 c 0.13997,0.17578 0.2832,0.30924 0.42969,0.40039 0.14974,0.0879 0.30273,0.13184 0.45898,0.13183 0.37109,10e-6 0.67383,-0.17578 0.9082,-0.52734 0.23763,-0.35156 0.35645,-0.81054 0.35645,-1.37695 0,-0.51107 -0.10254,-0.94401 -0.30762,-1.29883 -0.20508,-0.35481 -0.47852,-0.53222 -0.82031,-0.53223 -0.30925,1e-5 -0.55827,0.14649 -0.74707,0.43946 -0.18555,0.28971 -0.27832,0.62988 -0.27832,1.0205 l 0,1.74317"
         id="path9985"
         style="stroke:#000000;stroke-width:0.1;stroke-linecap:round;stroke-linejoin:round;stroke-miterlimit:4;stroke-opacity:1;stroke-dasharray:none" />
      <path
         d="m 179.98926,529.50543 c 0.24088,10e-6 0.36132,0.18393 0.36133,0.55176 -1e-5,0.38738 -0.1237,0.58106 -0.3711,0.58105 -0.23763,10e-6 -0.35644,-0.18716 -0.35644,-0.56152 0,-0.38085 0.12207,-0.57128 0.36621,-0.57129 m -0.3125,2.06055 0.61035,0 0,4.65332 -0.61035,0 0,-4.65332"
         id="path9987"
         style="stroke:#000000;stroke-width:0.1;stroke-linecap:round;stroke-linejoin:round;stroke-miterlimit:4;stroke-opacity:1;stroke-dasharray:none" />
      <path
         d="m 181.55664,530.17926 0.55176,0 0,1.38672 0.88379,0 0,0.53711 -0.88379,0 0,3.25195 c 0,0.13672 0.0358,0.24089 0.10742,0.3125 0.0716,0.0684 0.17904,0.10254 0.32227,0.10254 0.1302,0 0.28157,-0.0521 0.4541,-0.15625 l 0,0.60547 c -0.21485,0.0716 -0.42481,0.10742 -0.62989,0.10742 -0.25065,0 -0.45573,-0.0732 -0.61523,-0.21973 -0.15951,-0.14648 -0.23926,-0.36783 -0.23926,-0.66406 l 0,-3.33984 -0.63965,0 0,-0.53711 0.63965,0 0.0488,-1.38672"
         id="path9989"
         style="stroke:#000000;stroke-width:0.1;stroke-linecap:round;stroke-linejoin:round;stroke-miterlimit:4;stroke-opacity:1;stroke-dasharray:none" />
      <path
         d="m 183.53906,535.20367 c 0.45573,0.3711 0.8903,0.55665 1.30371,0.55664 0.31901,10e-6 0.58268,-0.0797 0.79102,-0.23925 0.20833,-0.16276 0.3125,-0.36784 0.3125,-0.61524 0,-0.17903 -0.07,-0.32877 -0.20996,-0.44922 -0.13672,-0.12044 -0.40365,-0.23925 -0.80078,-0.35644 -0.48829,-0.14648 -0.84473,-0.31413 -1.06934,-0.50293 -0.22461,-0.1888 -0.33691,-0.45084 -0.33691,-0.78613 0,-0.38411 0.15136,-0.70475 0.4541,-0.96192 0.30273,-0.26041 0.67708,-0.39062 1.12305,-0.39062 0.35807,0 0.76497,0.12695 1.2207,0.38086 l 0,0.69336 c -0.38737,-0.33854 -0.78451,-0.50781 -1.19141,-0.50782 -0.27995,1e-5 -0.51107,0.0749 -0.69336,0.22461 -0.17903,0.14975 -0.26855,0.33041 -0.26855,0.54199 0,0.17904 0.0814,0.32553 0.24414,0.43946 0.1595,0.11719 0.4248,0.22787 0.7959,0.33203 0.91145,0.25391 1.36718,0.68685 1.36718,1.29883 0,0.41341 -0.16764,0.76172 -0.50293,1.04492 -0.33203,0.27995 -0.73567,0.41992 -1.21093,0.41992 -0.43946,0 -0.88216,-0.1416 -1.32813,-0.4248 l 0,-0.69825"
         id="path9991"
         style="stroke:#000000;stroke-width:0.1;stroke-linecap:round;stroke-linejoin:round;stroke-miterlimit:4;stroke-opacity:1;stroke-dasharray:none" />
    </g>
    <path
       d="m 203.64285,500.50504 27.35715,0 0,-30 17.28571,0"
       id="path5654"
       style="fill:none;stroke:#000000;stroke-width:1px;stroke-linecap:butt;stroke-linejoin:miter;stroke-opacity:1;marker-start:none;marker-mid:none;marker-end:url(#Arrow1Mend)" />
    <path
       d="m 311,470.50504 24.28571,0"
       id="path6656"
       style="fill:none;stroke:#000000;stroke-width:1px;stroke-linecap:butt;stroke-linejoin:round;stroke-opacity:1;marker-start:none;marker-mid:none;marker-end:url(#Arrow1Mend)" />
    <g
       id="text6658"
       style="font-size:12px;font-style:normal;font-variant:normal;font-weight:normal;font-stretch:condensed;text-align:start;line-height:100%;writing-mode:lr-tb;text-anchor:start;fill:#000000;fill-opacity:1;stroke:#000000;stroke-width:0.1;stroke-linecap:round;stroke-linejoin:round;stroke-miterlimit:4;stroke-opacity:1;stroke-dasharray:none;font-family:Abadi MT Condensed Light;-inkscape-font-specification:Bitstream Vera Sans">
      <path
         d="m 341.76172,466.35367 2.25586,0 c 0.71093,10e-6 1.26953,0.17774 1.67578,0.5332 0.40624,0.35157 0.60937,0.87501 0.60937,1.57031 0,0.7422 -0.23047,1.32032 -0.6914,1.73438 -0.46094,0.41407 -1.07032,0.6211 -1.82813,0.62109 l -1.21875,0 0,3.71485 -0.80273,0 0,-8.17383 m 0.80273,0.70312 0,3.06446 1.20117,0 c 0.51172,0 0.92383,-0.14062 1.23633,-0.42188 0.3125,-0.28515 0.46875,-0.68163 0.46875,-1.18945 0,-0.45703 -0.12891,-0.81249 -0.38672,-1.06641 -0.25781,-0.2578 -0.61719,-0.38671 -1.07812,-0.38672 l -1.44141,0"
         id="path9997"
         style="stroke:#000000;stroke-width:0.1;stroke-linecap:round;stroke-linejoin:round;stroke-miterlimit:4;stroke-opacity:1;stroke-dasharray:none;-inkscape-font-specification:Bitstream Vera Sans" />
      <path
         d="m 348.05469,469.76968 c 0.17578,-0.3203 0.37109,-0.55858 0.58593,-0.71484 0.21875,-0.16015 0.45703,-0.24023 0.71485,-0.24023 0.1914,0 0.38476,0.043 0.58008,0.1289 l 0,0.69141 c -0.22657,-0.0859 -0.41797,-0.1289 -0.57422,-0.12891 -0.3711,10e-6 -0.68164,0.17383 -0.93164,0.52149 -0.25,0.34766 -0.375,0.74609 -0.375,1.19531 l 0,3.30469 -0.72071,0 0,-5.58399 0.65625,0 0.0645,0.82617"
         id="path9999"
         style="stroke:#000000;stroke-width:0.1;stroke-linecap:round;stroke-linejoin:round;stroke-miterlimit:4;stroke-opacity:1;stroke-dasharray:none;-inkscape-font-specification:Bitstream Vera Sans" />
      <path
         d="m 354.57031,473.94156 c -0.59375,0.47656 -1.17383,0.71484 -1.74023,0.71484 -0.66407,0 -1.20118,-0.26562 -1.61133,-0.79687 -0.41016,-0.53516 -0.61523,-1.23047 -0.61523,-2.08594 0,-0.88281 0.21093,-1.5957 0.63281,-2.13867 0.42578,-0.54687 0.96289,-0.82031 1.61133,-0.82031 0.57421,0 1.03515,0.2207 1.38281,0.66211 0.34765,0.4375 0.52148,0.99219 0.52148,1.66406 l 0,0.36328 -3.39258,0 0,0.28711 c 0,0.72656 0.15039,1.27539 0.45118,1.64648 0.30468,0.3711 0.66015,0.55664 1.0664,0.55664 0.5625,0 1.12695,-0.31054 1.69336,-0.93164 l 0,0.87891 m -0.60351,-3.06445 c -0.0156,-0.46484 -0.13477,-0.8125 -0.35743,-1.04297 -0.22265,-0.23437 -0.48242,-0.35156 -0.77929,-0.35157 -0.30079,10e-6 -0.58204,0.1172 -0.84375,0.35157 -0.25782,0.23047 -0.44141,0.57813 -0.55078,1.04297 l 2.53125,0"
         id="path10001"
         style="stroke:#000000;stroke-width:0.1;stroke-linecap:round;stroke-linejoin:round;stroke-miterlimit:4;stroke-opacity:1;stroke-dasharray:none;-inkscape-font-specification:Bitstream Vera Sans" />
      <path
         d="m 358.8418,466.35367 0.74414,0 0,8.17383 -0.74414,0 0,-0.78516 c -0.1836,0.30469 -0.39258,0.5332 -0.62696,0.68555 -0.23047,0.15234 -0.48437,0.22851 -0.76172,0.22851 -0.58593,0 -1.06054,-0.28711 -1.42382,-0.86133 -0.36328,-0.57812 -0.54493,-1.24999 -0.54493,-2.01562 0,-0.82031 0.19922,-1.51953 0.59766,-2.09766 0.40234,-0.57812 0.91211,-0.86718 1.5293,-0.86718 0.19921,0 0.40039,0.0449 0.60351,0.13476 0.20703,0.0899 0.41602,0.22657 0.62696,0.41016 l 0,-3.00586 m 0,3.71484 c -0.15235,-0.18749 -0.31837,-0.32617 -0.49805,-0.41601 -0.17969,-0.0937 -0.375,-0.14062 -0.58594,-0.14063 -0.43359,1e-5 -0.79492,0.20704 -1.08398,0.6211 -0.28907,0.41406 -0.4336,0.96094 -0.4336,1.64062 0,0.63672 0.12696,1.16406 0.38086,1.58203 0.25391,0.41797 0.57813,0.62696 0.97266,0.62695 0.34765,10e-6 0.64257,-0.15429 0.88477,-0.46289 0.24218,-0.30859 0.36327,-0.69921 0.36328,-1.17187 l 0,-2.2793"
         id="path10003"
         style="stroke:#000000;stroke-width:0.1;stroke-linecap:round;stroke-linejoin:round;stroke-miterlimit:4;stroke-opacity:1;stroke-dasharray:none;-inkscape-font-specification:Bitstream Vera Sans" />
      <path
         d="m 361.26172,466.47086 c 0.28906,0 0.43359,0.22071 0.43359,0.66211 0,0.46485 -0.14844,0.69727 -0.44531,0.69726 -0.28516,1e-5 -0.42773,-0.2246 -0.42773,-0.67383 0,-0.45702 0.14648,-0.68554 0.43945,-0.68554 m -0.375,2.47265 0.73242,0 0,5.58399 -0.73242,0 0,-5.58399"
         id="path10005"
         style="stroke:#000000;stroke-width:0.1;stroke-linecap:round;stroke-linejoin:round;stroke-miterlimit:4;stroke-opacity:1;stroke-dasharray:none;-inkscape-font-specification:Bitstream Vera Sans" />
      <path
         d="m 366.20703,474.27554 c -0.4375,0.25391 -0.86328,0.38086 -1.27734,0.38086 -0.6836,0 -1.23829,-0.27343 -1.66407,-0.82031 -0.42578,-0.55078 -0.63867,-1.23047 -0.63867,-2.03906 0,-0.83203 0.22071,-1.53711 0.66211,-2.11524 0.44531,-0.57812 1.01953,-0.86718 1.72266,-0.86718 0.39062,0 0.78906,0.11719 1.19531,0.35156 l 0,0.81445 c -0.39453,-0.3164 -0.77539,-0.4746 -1.14258,-0.47461 -0.47656,10e-6 -0.87695,0.2129 -1.20117,0.63867 -0.32422,0.42579 -0.48633,0.96094 -0.48633,1.60547 0,0.58594 0.14649,1.10157 0.43946,1.54688 0.29296,0.44531 0.68749,0.66797 1.18359,0.66797 0.36328,0 0.76562,-0.16016 1.20703,-0.48047 l 0,0.79101"
         id="path10007"
         style="stroke:#000000;stroke-width:0.1;stroke-linecap:round;stroke-linejoin:round;stroke-miterlimit:4;stroke-opacity:1;stroke-dasharray:none;-inkscape-font-specification:Bitstream Vera Sans" />
      <path
         d="m 367.4082,467.27945 0.66211,0 0,1.66406 1.06055,0 0,0.64453 -1.06055,0 0,3.90235 c 0,0.16406 0.043,0.28906 0.12891,0.375 0.0859,0.082 0.21484,0.12304 0.38672,0.12304 0.15625,0 0.33789,-0.0625 0.54492,-0.1875 l 0,0.72657 c -0.25782,0.0859 -0.50977,0.1289 -0.75586,0.1289 -0.30078,0 -0.54688,-0.0879 -0.73828,-0.26367 -0.19141,-0.17578 -0.28711,-0.4414 -0.28711,-0.79687 l 0,-4.00782 -0.76758,0 0,-0.64453 0.76758,0 0.0586,-1.66406"
         id="path10009"
         style="stroke:#000000;stroke-width:0.1;stroke-linecap:round;stroke-linejoin:round;stroke-miterlimit:4;stroke-opacity:1;stroke-dasharray:none;-inkscape-font-specification:Bitstream Vera Sans" />
      <path
         d="m 370.40234,466.47086 c 0.28906,0 0.4336,0.22071 0.4336,0.66211 0,0.46485 -0.14844,0.69727 -0.44532,0.69726 -0.28515,1e-5 -0.42773,-0.2246 -0.42773,-0.67383 0,-0.45702 0.14648,-0.68554 0.43945,-0.68554 m -0.375,2.47265 0.73243,0 0,5.58399 -0.73243,0 0,-5.58399"
         id="path10011"
         style="stroke:#000000;stroke-width:0.1;stroke-linecap:round;stroke-linejoin:round;stroke-miterlimit:4;stroke-opacity:1;stroke-dasharray:none;-inkscape-font-specification:Bitstream Vera Sans" />
      <path
         d="m 373.95312,468.81461 c 0.61328,0 1.125,0.26758 1.53516,0.80273 0.41015,0.53125 0.61523,1.23633 0.61524,2.11523 -10e-6,0.50782 -0.082,0.98829 -0.2461,1.44141 -0.16016,0.44922 -0.41016,0.8086 -0.75,1.07813 -0.33985,0.26953 -0.73438,0.40429 -1.18359,0.40429 -0.66797,0 -1.19532,-0.27539 -1.58203,-0.82617 -0.38282,-0.55078 -0.57422,-1.24023 -0.57422,-2.06836 0,-0.66015 0.12109,-1.23046 0.36328,-1.71094 0.24219,-0.48046 0.53711,-0.80663 0.88476,-0.97851 0.35157,-0.17187 0.66407,-0.25781 0.9375,-0.25781 m 0.0469,0.6914 c -0.48828,10e-6 -0.85547,0.20704 -1.10156,0.6211 -0.2461,0.41406 -0.36914,0.97851 -0.36914,1.69336 0,0.61328 0.12109,1.12695 0.36328,1.54101 0.24218,0.41406 0.58203,0.6211 1.01953,0.62109 0.41406,10e-6 0.7539,-0.1914 1.01953,-0.57421 0.26953,-0.38672 0.40429,-0.94922 0.4043,-1.6875 -10e-6,-0.70313 -0.13087,-1.24805 -0.39258,-1.63477 -0.26172,-0.38671 -0.57618,-0.58007 -0.94336,-0.58008"
         id="path10013"
         style="stroke:#000000;stroke-width:0.1;stroke-linecap:round;stroke-linejoin:round;stroke-miterlimit:4;stroke-opacity:1;stroke-dasharray:none;-inkscape-font-specification:Bitstream Vera Sans" />
      <path
         d="m 377.1582,468.94351 0.66211,0 0.0703,0.79688 c 0.19532,-0.30859 0.41602,-0.53906 0.66211,-0.69141 0.25,-0.15624 0.52539,-0.23437 0.82618,-0.23437 0.47656,0 0.84765,0.16016 1.11328,0.48046 0.26562,0.32032 0.39843,0.74806 0.39843,1.28321 l 0,3.94922 -0.74414,0 0,-3.94922 c 0,-0.32812 -0.0859,-0.58984 -0.25781,-0.78516 -0.17188,-0.19531 -0.39453,-0.29296 -0.66797,-0.29297 -0.37109,10e-6 -0.68555,0.16407 -0.94336,0.49219 -0.25781,0.32422 -0.38672,0.69922 -0.38672,1.125 l 0,3.41016 -0.73242,0 0,-5.58399"
         id="path10015"
         style="stroke:#000000;stroke-width:0.1;stroke-linecap:round;stroke-linejoin:round;stroke-miterlimit:4;stroke-opacity:1;stroke-dasharray:none;-inkscape-font-specification:Bitstream Vera Sans" />
    </g>
    <rect
       width="60"
       height="15"
       x="251"
       y="463.36218"
       id="rect6662"
       style="fill:url(#Strips1_3);fill-opacity:1;stroke:#000000;stroke-width:0;stroke-linecap:butt;stroke-linejoin:miter;stroke-miterlimit:4;stroke-dasharray:none;stroke-dashoffset:0" />
    <path
       d="m 251.79799,547.49469 60,0"
       id="path9162"
       style="fill:none;stroke:#000000;stroke-width:0.75;stroke-linecap:butt;stroke-linejoin:miter;stroke-miterlimit:4;stroke-opacity:1;stroke-dasharray:none" />
    <path
       d="m 251.79799,562.49469 60,0"
       id="path9164"
       style="fill:none;stroke:#000000;stroke-width:0.75;stroke-linecap:butt;stroke-linejoin:miter;stroke-miterlimit:4;stroke-opacity:1;stroke-dasharray:none" />
    <path
       d="m 251.79799,577.49469 60,0"
       id="path9166"
       style="fill:none;stroke:#000000;stroke-width:0.75;stroke-linecap:butt;stroke-linejoin:miter;stroke-miterlimit:4;stroke-opacity:1;stroke-dasharray:none" />
  </g>
</svg>
